REM DIRINDEX 1\2,1\3,1\4
REM DIRNAME cjc105,folder01,folder02,folder03
TITLE ""
FILE "DISC3Track32.mp3" MP3
  TRACK 01 AUDIO
    TITLE "0:"
    INDEX 01 00:00:00
  TRACK 02 AUDIO
    TITLE "4:cjc105_5690"
    INDEX 01 00:00:19
  TRACK 03 AUDIO
    TITLE "0:"
    INDEX 01 00:04:25
  TRACK 04 AUDIO
    TITLE "4:cjc105_5691"
    INDEX 01 00:04:68
  TRACK 05 AUDIO
    TITLE "0:"
    INDEX 01 00:07:33
  TRACK 06 AUDIO
    TITLE "2:cjc105_5692"
    INDEX 01 00:07:72
  TRACK 07 AUDIO
    TITLE "3:cjc105_5693"
    INDEX 01 00:09:16
  TRACK 08 AUDIO
    TITLE "0:"
    INDEX 01 00:10:41
  TRACK 09 AUDIO
    TITLE "2:cjc105_5694"
    INDEX 01 00:10:57
  TRACK 10 AUDIO
    TITLE "3:cjc105_5695"
    INDEX 01 00:12:18
  TRACK 11 AUDIO
    TITLE "0:"
    INDEX 01 00:13:45
  TRACK 12 AUDIO
    TITLE "2:cjc105_5696"
    INDEX 01 00:13:61
  TRACK 13 AUDIO
    TITLE "3:cjc105_5697"
    INDEX 01 00:15:09
  TRACK 14 AUDIO
    TITLE "0:"
    INDEX 01 00:16:26
  TRACK 15 AUDIO
    TITLE "2:cjc105_5698"
    INDEX 01 00:16:42
  TRACK 16 AUDIO
    TITLE "3:cjc105_5699"
    INDEX 01 00:17:67
  TRACK 17 AUDIO
    TITLE "0:"
    INDEX 01 00:19:44
  TRACK 18 AUDIO
    TITLE "2:cjc105_5700"
    INDEX 01 00:19:63
  TRACK 19 AUDIO
    TITLE "3:cjc105_5701"
    INDEX 01 00:21:11
  TRACK 20 AUDIO
    TITLE "0:"
    INDEX 01 00:22:52
  TRACK 21 AUDIO
    TITLE "2:cjc105_5702"
    INDEX 01 00:22:66
  TRACK 22 AUDIO
    TITLE "3:cjc105_5703"
    INDEX 01 00:24:20
  TRACK 23 AUDIO
    TITLE "0:"
    INDEX 01 00:25:70
  TRACK 24 AUDIO
    TITLE "2:cjc105_5704"
    INDEX 01 00:26:15
  TRACK 25 AUDIO
    TITLE "3:cjc105_5705"
    INDEX 01 00:27:51
  TRACK 26 AUDIO
    TITLE "0:"
    INDEX 01 00:29:15
  TRACK 27 AUDIO
    TITLE "2:cjc105_5706"
    INDEX 01 00:29:38
  TRACK 28 AUDIO
    TITLE "3:cjc105_5707"
    INDEX 01 00:31:10
  TRACK 29 AUDIO
    TITLE "0:"
    INDEX 01 00:32:39
  TRACK 30 AUDIO
    TITLE "2:cjc105_5708"
    INDEX 01 00:32:54
  TRACK 31 AUDIO
    TITLE "3:cjc105_5709"
    INDEX 01 00:33:64
  TRACK 32 AUDIO
    TITLE "0:"
    INDEX 01 00:35:10
  TRACK 33 AUDIO
    TITLE "2:cjc105_5710"
    INDEX 01 00:35:31
  TRACK 34 AUDIO
    TITLE "3:cjc105_5711"
    INDEX 01 00:36:33
  TRACK 35 AUDIO
    TITLE "0:"
    INDEX 01 00:37:52
  TRACK 36 AUDIO
    TITLE "2:cjc105_5712"
    INDEX 01 00:37:69
  TRACK 37 AUDIO
    TITLE "3:cjc105_5713"
    INDEX 01 00:39:00
  TRACK 38 AUDIO
    TITLE "0:"
    INDEX 01 00:40:24
  TRACK 39 AUDIO
    TITLE "2:cjc105_5714"
    INDEX 01 00:40:38
  TRACK 40 AUDIO
    TITLE "3:cjc105_5715"
    INDEX 01 00:41:47
  TRACK 41 AUDIO
    TITLE "0:"
    INDEX 01 00:42:59
  TRACK 42 AUDIO
    TITLE "2:cjc105_5716"
    INDEX 01 00:43:05
  TRACK 43 AUDIO
    TITLE "3:cjc105_5717"
    INDEX 01 00:44:09
  TRACK 44 AUDIO
    TITLE "0:"
    INDEX 01 00:45:18
  TRACK 45 AUDIO
    TITLE "2:cjc105_5718"
    INDEX 01 00:45:39
  TRACK 46 AUDIO
    TITLE "3:cjc105_5719"
    INDEX 01 00:47:25
  TRACK 47 AUDIO
    TITLE "0:"
    INDEX 01 00:49:12
  TRACK 48 AUDIO
    TITLE "2:cjc105_5720"
    INDEX 01 00:49:25
  TRACK 49 AUDIO
    TITLE "3:cjc105_5721"
    INDEX 01 00:50:41
  TRACK 50 AUDIO
    TITLE "0:"
    INDEX 01 00:51:60
  TRACK 51 AUDIO
    TITLE "2:cjc105_5722"
    INDEX 01 00:52:06
  TRACK 52 AUDIO
    TITLE "3:cjc105_5723"
    INDEX 01 00:53:13
  TRACK 53 AUDIO
    TITLE "0:"
    INDEX 01 00:54:46
  TRACK 54 AUDIO
    TITLE "2:cjc105_5724"
    INDEX 01 00:54:66
  TRACK 55 AUDIO
    TITLE "3:cjc105_5725"
    INDEX 01 00:56:20
  TRACK 56 AUDIO
    TITLE "0:"
    INDEX 01 00:57:35
  TRACK 57 AUDIO
    TITLE "2:cjc105_5726"
    INDEX 01 00:57:48
  TRACK 58 AUDIO
    TITLE "3:cjc105_5727"
    INDEX 01 00:59:26
  TRACK 59 AUDIO
    TITLE "0:"
    INDEX 01 01:01:03
  TRACK 60 AUDIO
    TITLE "2:cjc105_5728"
    INDEX 01 01:01:19
  TRACK 61 AUDIO
    TITLE "3:cjc105_5729"
    INDEX 01 01:02:61
  TRACK 62 AUDIO
    TITLE "0:"
    INDEX 01 01:03:71
  TRACK 63 AUDIO
    TITLE "2:cjc105_5730"
    INDEX 01 01:04:11
  TRACK 64 AUDIO
    TITLE "3:cjc105_5731"
    INDEX 01 01:05:64
  TRACK 65 AUDIO
    TITLE "0:"
    INDEX 01 01:07:39
  TRACK 66 AUDIO
    TITLE "2:cjc105_5732"
    INDEX 01 01:07:63
  TRACK 67 AUDIO
    TITLE "3:cjc105_5733"
    INDEX 01 01:08:70
  TRACK 68 AUDIO
    TITLE "0:"
    INDEX 01 01:10:16
  TRACK 69 AUDIO
    TITLE "2:cjc105_5734"
    INDEX 01 01:10:37
  TRACK 70 AUDIO
    TITLE "3:cjc105_5735"
    INDEX 01 01:11:54
  TRACK 71 AUDIO
    TITLE "0:"
    INDEX 01 01:12:68
  TRACK 72 AUDIO
    TITLE "2:cjc105_5736"
    INDEX 01 01:13:14
  TRACK 73 AUDIO
    TITLE "3:cjc105_5737"
    INDEX 01 01:14:37
  TRACK 74 AUDIO
    TITLE "0:"
    INDEX 01 01:16:32
  TRACK 75 AUDIO
    TITLE "2:cjc105_5738"
    INDEX 01 01:16:61
  TRACK 76 AUDIO
    TITLE "3:cjc105_5739"
    INDEX 01 01:17:65
  TRACK 77 AUDIO
    TITLE "0:"
    INDEX 01 01:19:15
  TRACK 78 AUDIO
    TITLE "2:cjc105_5740"
    INDEX 01 01:19:36
  TRACK 79 AUDIO
    TITLE "3:cjc105_5741"
    INDEX 01 01:21:00
  TRACK 80 AUDIO
    TITLE "0:"
    INDEX 01 01:22:21
  TRACK 81 AUDIO
    TITLE "2:cjc105_5742"
    INDEX 01 01:22:44
  TRACK 82 AUDIO
    TITLE "3:cjc105_5743"
    INDEX 01 01:23:52
  TRACK 83 AUDIO
    TITLE "0:"
    INDEX 01 01:25:08
  TRACK 84 AUDIO
    TITLE "2:cjc105_5744"
    INDEX 01 01:25:29
  TRACK 85 AUDIO
    TITLE "3:cjc105_5745"
    INDEX 01 01:26:34
  TRACK 86 AUDIO
    TITLE "0:"
    INDEX 01 01:27:44
  TRACK 87 AUDIO
    TITLE "2:cjc105_5746"
    INDEX 01 01:27:65
  TRACK 88 AUDIO
    TITLE "3:cjc105_5747"
    INDEX 01 01:28:65
  TRACK 89 AUDIO
    TITLE "0:"
    INDEX 01 01:29:72
